<?xml version="1.0" encoding="UTF-8"?>
<svg id="Layer_3_copy_7" data-name="Layer 3 copy 7" xmlns="http://www.w3.org/2000/svg" viewBox="0 0 1569.2 974.06">
  <defs>
    <style>
      .cls-1 {
        fill: #f47725;
      }

      .cls-1, .cls-2 {
        stroke-width: 0px;
      }

      .cls-2 {
        fill: #ea002c;
      }
    </style>
  </defs>
  <path id="Path_3" data-name="Path 3" class="cls-2" d="m556.29,171.91c-67.52,10.77-118.7,66.68-123.47,134.89.04,72.74,59.69,116.69,59.87,212.19.77,59.97-30.36,115.84-81.77,146.73,17.23-1.63,36.12-2.56,56.96-2.61,23.93-.44,47.86.93,71.57,4.12l223.59-274.76c-56.49-84.25-126.33-158.74-206.77-220.55Z"/>
  <path id="Path_4" data-name="Path 4" class="cls-2" d="m744.75,913.4c28.1-43.83,31.6-113.74,34.02-184.98,2.67-66.58,16.58-116.52,105.3-116.57,19.6-.01,38.37,2.68,72.32,2.5,94.43-.44,186.99-26.37,267.9-75.05-138.07-88.82-297.21-139.49-461.22-146.84-12.71,35.96-111.68,311.57-119.12,333.71,15.23,18.27,28.69,37.95,40.19,58.77,24.82,40.49,45.15,83.56,60.62,128.46Z"/>
  <path id="Path_5" data-name="Path 5" class="cls-1" d="m271.91,688.63c-11.28,0-16.98-7.44-18.53-20.55-1.55-13.11-57.67-525.02-66.04-602.38-1.21-11.4-4.18-32.04-4.18-39.57-.81-9.16,5.95-17.24,15.11-18.05.6-.05,1.21-.07,1.82-.06,117.58,21.56,228.64,69.8,324.65,141.01-70.91,17.86-121.42,80.53-123.79,153.62.42,84.26,60.7,130.54,61.12,215.06.49,137.48-157.49,170.82-190.15,170.92Z"/>
  <path id="Path_6" data-name="Path 6" class="cls-1" d="m757.58,949.93c1.93,5.32,4.26,10.5,6.96,15.48,2.55,5.29,7.9,8.65,13.78,8.65,4.45-.25,8.8-1.41,12.77-3.42,11.77-5.33,479.04-223.26,549.42-255.68,10.23-5.04,29.54-13.67,35.94-17.41,5.72-2.76,9.44-8.47,9.65-14.82-.04-3.26-.98-6.44-2.71-9.2-37.19-44.53-80.92-83.17-129.68-114.61-88.3,54.14-189.54,83.53-293.11,85.09-34.25.02-41.9-2.31-65.25-2.17-68.12.25-85.04,29.42-87.34,89.01-.41,11.36-.65,26.42-1.18,43.07,2.4,62.38-14.83,123.93-49.25,176Z"/>
</svg>